<?xml version="1.0" standalone="no"?><!DOCTYPE svg PUBLIC "-//W3C//DTD SVG 1.1//EN" "http://www.w3.org/Graphics/SVG/1.1/DTD/svg11.dtd"><svg t="1578216095419" class="icon" viewBox="0 0 1024 1024" version="1.1" xmlns="http://www.w3.org/2000/svg" p-id="2923" xmlns:xlink="http://www.w3.org/1999/xlink" width="200" height="200"><defs><style type="text/css"></style></defs><path d="M679.453315 383.633401c-0.409322-10.153244-4.200672-20.195971-11.954263-27.948539-7.751544-7.749498-17.767666-11.517311-27.947516-11.954263-11.301394-0.436952-22.709211 3.330862-31.335682 11.954263l-96.099708 96.127338-96.100732-96.127338c-8.625448-8.623401-20.034289-12.391215-31.333636-11.954263-10.152221 0.436952-20.195971 4.204765-27.948539 11.954263-7.752568 7.751544-11.544941 17.795295-11.954263 27.948539-0.464581 11.299347 3.327792 22.708188 11.954263 31.333636l96.099708 96.127338-96.099708 96.074126c-8.626471 8.625448-12.418844 20.034289-11.954263 31.333636 0.409322 10.152221 4.201695 20.195971 11.954263 27.948539 7.751544 7.751544 17.795295 11.57257 27.948539 11.95631 11.299347 0.490164 22.708188-3.330862 31.333636-11.95631l96.100732-96.073102 96.099708 96.073102c8.626471 8.625448 20.034289 12.44545 31.335682 11.95631 10.178827-0.38374 20.194948-4.203742 27.947516-11.95631 7.752568-7.751544 11.543917-17.796318 11.954263-27.948539 0.463558-11.299347-3.327792-22.708188-11.954263-31.333636l-96.099708-96.074126 96.099708-96.127338C676.125523 406.341588 679.916872 394.932748 679.453315 383.633401zM512.116145 63.916728c-246.953462 0-447.178669 200.227254-447.178669 447.178669 0 246.953462 200.225207 447.177646 447.178669 447.177646 246.953462 0 447.178669-200.224184 447.178669-447.177646C959.294814 264.143982 759.069607 63.916728 512.116145 63.916728zM512.116145 874.427426c-200.333678 0-363.332029-162.996305-363.332029-363.333052 0-200.333678 162.999374-363.333052 363.332029-363.333052s363.333052 162.999374 363.333052 363.333052C875.449197 711.431122 712.449823 874.427426 512.116145 874.427426z" p-id="2924"></path></svg>