<?xml version="1.0" standalone="no"?><!DOCTYPE svg PUBLIC "-//W3C//DTD SVG 1.1//EN" "http://www.w3.org/Graphics/SVG/1.1/DTD/svg11.dtd"><svg t="1578396334379" class="icon" viewBox="0 0 1024 1024" version="1.1" xmlns="http://www.w3.org/2000/svg" p-id="8504" xmlns:xlink="http://www.w3.org/1999/xlink" width="200" height="200"><defs><style type="text/css"></style></defs><path d="M749.376 224h-71.04A192 192 0 0 0 320 320l-0.032 96h544c17.664 0 32 14.208 32 32v448.192A64 64 0 0 1 831.84 960H192.16A64 64 0 0 1 128 896.192V448a32 32 0 0 1 32-32h96v-96a256 256 0 0 1 493.376-96zM192 480v383.776A31.968 31.968 0 0 0 223.744 896h576.512c17.184 0 31.744-14.4 31.744-32.224V480H192z m352 160v128.32c0 17.472-14.208 31.68-32 31.68a32 32 0 0 1-32-31.68V640h-32.32a31.776 31.776 0 0 1-31.68-32 32 32 0 0 1 31.68-32h128.64c17.472 0 31.68 14.208 31.68 32a32 32 0 0 1-31.68 32H544z" fill="#000000" p-id="8505"></path></svg>